<?xml version="1.0" encoding="utf-8"?>
<!-- Generator: Adobe Illustrator 19.0.0, SVG Export Plug-In . SVG Version: 6.00 Build 0)  -->
<svg version="1.1" id="Layer_1" xmlns="http://www.w3.org/2000/svg" xmlns:xlink="http://www.w3.org/1999/xlink" x="0px" y="0px"
	 viewBox="0 0 96 96" style="enable-background:new 0 0 96 96;" xml:space="preserve">
<style type="text/css">
	.st0{fill:#25B7D3;}
	.st1{fill:#BF8662;}
	.st2{fill:#CC9978;}
	.st3{fill:#692E19;}
	.st4{fill:#84462D;}
	.st5{fill:#FFFFFF;}
	.st6{fill:#FBE158;}
	.st7{fill:#FACB1B;}
	.st8{fill:#F99134;}
	.st9{fill:#AF7653;}
	.st10{fill:#40C9E7;}
	.st11{fill:#3E3E3F;}
</style>
<g id="XMLID_1_">
	<circle id="XMLID_3_" class="st0" cx="48" cy="48" r="32.5"/>
	<path id="XMLID_4_" class="st1" d="M56.9,42.1c-0.6,0-0.6,0.7-0.6,0.7v-0.1l-0.6,0.6c0-10.6-2.4-7.1-7.7-7.1s-7.7-3.5-7.7,7.1
		l-0.6-0.6v4.1l2.4,5.9l3,2.4c0.3,0.4,0.8,0.6,1.3,0.6H48h1.6c0.5,0,1-0.2,1.3-0.6l3-2.4l1.9-4.7c1.7-0.1,2.2-2.7,2.2-4.6
		C58,42.7,57.5,42.1,56.9,42.1z"/>
	<path id="XMLID_5_" class="st2" d="M40.3,43.3l-0.6-0.6v0.1c0,0,0-0.7-0.6-0.7S38,42.7,38,43.4c0,1.9,0.6,4.5,2.2,4.6l1.9,4.7
		l3,2.4c0.3,0.4,0.8,0.6,1.3,0.6H48V36.2C42.7,36.2,40.3,32.6,40.3,43.3z"/>
	<path id="XMLID_6_" class="st3" d="M48,32.6c-7.1,0-8.9,4.1-8.3,10l0.6,0.6c0-10.6,2.4-7.1,7.7-7.1s7.7-3.5,7.7,7.1l0.6-0.6
		C56.9,36.8,55.1,32.6,48,32.6z"/>
	<path id="XMLID_7_" class="st4" d="M39.7,42.7l0.6,0.6c0-10.6,2.4-7.1,7.7-7.1v-3.5C40.9,32.6,39.1,36.8,39.7,42.7z"/>
	<path id="XMLID_8_" class="st5" d="M64.5,60.4c-0.4-0.8-1-1.4-1.8-1.8l-7.1-2.4H48h-7.7l-7.1,2.4c-0.8,0.3-1.4,1-1.8,1.8l-2.4,6.5
		h37.8L64.5,60.4z"/>
	<rect id="XMLID_9_" x="58" y="63.4" class="st6" width="3" height="1.8"/>
	<rect id="XMLID_10_" x="53.3" y="63.4" class="st6" width="3" height="1.8"/>
	<polygon id="XMLID_11_" class="st6" points="32.6,63.4 30.4,63.4 29.9,64.6 29.7,65.2 32.6,65.2 	"/>
	<rect id="XMLID_12_" x="48.6" y="63.4" class="st6" width="3" height="1.8"/>
	<rect id="XMLID_13_" x="34.4" y="63.4" class="st6" width="3" height="1.8"/>
	<rect id="XMLID_14_" x="39.1" y="63.4" class="st6" width="3" height="1.8"/>
	<rect id="XMLID_15_" x="43.9" y="63.4" class="st6" width="3" height="1.8"/>
	<polygon id="XMLID_16_" class="st6" points="62.8,63.4 62.8,65.2 66.3,65.2 66.1,64.6 65.6,63.4 	"/>
	<rect id="XMLID_17_" x="48.6" y="59.2" class="st6" width="3" height="1.8"/>
	<rect id="XMLID_18_" x="58" y="59.2" class="st6" width="3" height="1.8"/>
	<path id="XMLID_19_" class="st6" d="M32.6,59.2h-0.3c-0.4,0.3-0.7,0.8-0.9,1.2L31.2,61h1.4V59.2z"/>
	<rect id="XMLID_20_" x="34.4" y="59.2" class="st6" width="3" height="1.8"/>
	<path id="XMLID_21_" class="st6" d="M62.8,59.2V61h2l-0.2-0.6c-0.2-0.4-0.5-0.8-0.9-1.2H62.8z"/>
	<rect id="XMLID_22_" x="53.3" y="59.2" class="st6" width="3" height="1.8"/>
	<rect id="XMLID_23_" x="43.9" y="59.2" class="st6" width="3" height="1.8"/>
	<rect id="XMLID_24_" x="39.1" y="59.2" class="st6" width="3" height="1.8"/>
	<rect id="XMLID_25_" x="32.6" y="65.2" class="st7" width="1.8" height="1.8"/>
	<path id="XMLID_26_" class="st7" d="M34.4,59.2v-1l-1.2,0.4c-0.2,0.1-0.4,0.2-0.6,0.4v0.2L34.4,59.2z"/>
	<rect id="XMLID_27_" x="32.6" y="61" class="st7" width="1.8" height="2.4"/>
	<rect id="XMLID_28_" x="37.4" y="61" class="st7" width="1.8" height="2.4"/>
	<rect id="XMLID_29_" x="37.4" y="65.2" class="st7" width="1.8" height="1.8"/>
	<polygon id="XMLID_30_" class="st7" points="39.1,59.2 39.1,56.7 37.4,57.3 37.4,59.2 	"/>
	<rect id="XMLID_31_" x="42.1" y="65.2" class="st7" width="1.8" height="1.8"/>
	<rect id="XMLID_32_" x="42.1" y="56.3" class="st7" width="1.8" height="3"/>
	<rect id="XMLID_33_" x="42.1" y="61" class="st7" width="1.8" height="2.4"/>
	<rect id="XMLID_34_" x="46.8" y="65.2" class="st7" width="1.8" height="1.8"/>
	<rect id="XMLID_35_" x="46.8" y="61" class="st7" width="1.8" height="2.4"/>
	<polygon id="XMLID_36_" class="st7" points="48.6,59.2 48.6,56.3 48,56.3 46.8,56.3 46.8,59.2 	"/>
	<rect id="XMLID_37_" x="51.5" y="61" class="st7" width="1.8" height="2.4"/>
	<rect id="XMLID_38_" x="51.5" y="56.3" class="st7" width="1.8" height="3"/>
	<rect id="XMLID_39_" x="51.5" y="65.2" class="st7" width="1.8" height="1.8"/>
	<polygon id="XMLID_40_" class="st7" points="58,59.2 58,57.1 56.3,56.5 56.3,59.2 	"/>
	<rect id="XMLID_41_" x="56.3" y="61" class="st7" width="1.8" height="2.4"/>
	<rect id="XMLID_42_" x="56.3" y="65.2" class="st7" width="1.8" height="1.8"/>
	<rect id="XMLID_43_" x="61" y="65.2" class="st7" width="1.8" height="1.8"/>
	<rect id="XMLID_44_" x="61" y="61" class="st7" width="1.8" height="2.4"/>
	<polygon id="XMLID_45_" class="st7" points="62.8,59.2 62.8,58.7 62.7,58.6 61,58.1 61,59.2 	"/>
	<rect id="XMLID_46_" x="32.6" y="63.4" class="st8" width="1.8" height="1.8"/>
	<rect id="XMLID_47_" x="32.6" y="59.2" class="st8" width="1.8" height="1.8"/>
	<rect id="XMLID_48_" x="37.4" y="63.4" class="st8" width="1.8" height="1.8"/>
	<rect id="XMLID_49_" x="37.4" y="59.2" class="st8" width="1.8" height="1.8"/>
	<rect id="XMLID_50_" x="42.1" y="63.4" class="st8" width="1.8" height="1.8"/>
	<rect id="XMLID_51_" x="42.1" y="59.2" class="st8" width="1.8" height="1.8"/>
	<rect id="XMLID_52_" x="46.8" y="63.4" class="st8" width="1.8" height="1.8"/>
	<rect id="XMLID_53_" x="46.8" y="59.2" class="st8" width="1.8" height="1.8"/>
	<rect id="XMLID_54_" x="51.5" y="63.4" class="st8" width="1.8" height="1.8"/>
	<rect id="XMLID_55_" x="51.5" y="59.2" class="st8" width="1.8" height="1.8"/>
	<rect id="XMLID_56_" x="56.3" y="63.4" class="st8" width="1.8" height="1.8"/>
	<rect id="XMLID_57_" x="56.3" y="59.2" class="st8" width="1.8" height="1.8"/>
	<rect id="XMLID_58_" x="61" y="63.4" class="st8" width="1.8" height="1.8"/>
	<rect id="XMLID_59_" x="61" y="59.2" class="st8" width="1.8" height="1.8"/>
	<path id="XMLID_60_" class="st9" d="M49.6,55.7H48h-1.6c-0.5,0-1-0.2-1.3-0.6l-3-2.4V58c0,0,1.2,2.4,5.9,2.4s5.9-2.4,5.9-2.4v-5.3
		l-3,2.4C50.6,55.5,50.1,55.7,49.6,55.7z"/>
	<polygon id="XMLID_61_" class="st10" points="29.7,65.2 29.7,65.2 29.9,64.6 	"/>
	<polygon id="XMLID_62_" class="st10" points="31.2,61 31.2,61 31.5,60.4 	"/>
	<path id="XMLID_63_" class="st5" d="M48,62.2c2.3,0,7.7-0.6,7.7-4.1c0-0.4,0-1.1,0-1.8h-1.8V58c0,0-1.2,2.4-5.9,2.4
		S42.1,58,42.1,58v-1.8h-1.8c0,0.8,0,1.4,0,1.8C40.3,61.6,45.7,62.2,48,62.2z"/>
	<path id="XMLID_64_" class="st1" d="M45.1,55.1l-3-2.4V58c0,0,1.2,2.4,5.9,2.4v-4.7h-1.6C45.9,55.7,45.4,55.5,45.1,55.1z"/>
	<path id="XMLID_65_" class="st11" d="M46.2,43.3c0-0.7-0.5-1.2-1.2-1.2h0c0,0.6-0.5,1.2-1.2,1.2c0,0.6,0.5,1.1,1.2,1.1
		C45.7,44.5,46.2,43.9,46.2,43.3z"/>
	<path id="XMLID_66_" class="st11" d="M52.1,43.3c0-0.7-0.5-1.2-1.2-1.2h0c0,0.6-0.5,1.2-1.2,1.2c0,0.6,0.5,1.1,1.2,1.1
		C51.6,44.5,52.1,43.9,52.1,43.3z"/>
	<path id="XMLID_69_" class="st3" d="M48,47.4c0,0-3.5,0-5.3,1.2c0,4.1,3,7.1,3,7.1l2.4,1.2l2.4-1.2c0,0,3-3,3-7.1
		C51.5,47.4,48,47.4,48,47.4z M49.2,52.1l-0.6-0.6H48h-0.6l-0.6,0.6h-1.2L44.9,51c-0.2-0.4-0.2-0.8,0-1.2c0.2-0.4,0.6-0.6,1-0.6h2h2
		c0.4,0,0.8,0.2,1,0.6c0.2,0.4,0.2,0.8,0,1.2l-0.7,1.2H49.2z"/>
	<path id="XMLID_70_" class="st4" d="M47.4,51.5l-0.6,0.6h-1.2L44.9,51c-0.2-0.4-0.2-0.8,0-1.2c0.2-0.4,0.6-0.6,1-0.6h2v-1.8
		c0,0-3.5,0-5.3,1.2c0,4.1,3,7.1,3,7.1l2.4,1.2v-5.3H47.4z"/>
</g>
</svg>
