<?xml version="1.0" encoding="utf-8"?>
<!-- Generator: Adobe Illustrator 19.0.0, SVG Export Plug-In . SVG Version: 6.00 Build 0)  -->
<svg version="1.1" id="Layer_1" xmlns="http://www.w3.org/2000/svg" xmlns:xlink="http://www.w3.org/1999/xlink" x="0px" y="0px"
	 viewBox="0 0 96 96" style="enable-background:new 0 0 96 96;" xml:space="preserve">
<style type="text/css">
	.st0{fill:#32BEA6;}
	.st1{fill:#F7B4B4;}
	.st2{fill:#FBC8C8;}
	.st3{fill:#FBD7D7;}
	.st4{fill:#F79392;}
	.st5{fill:#FFFFFF;}
	.st6{fill:#F37A10;}
	.st7{fill:#3E3E3F;}
	.st8{fill:#84462D;}
	.st9{fill:#FACB1B;}
	.st10{fill:#F3B607;}
	.st11{fill:#FBE158;}
</style>
<g id="XMLID_1_">
	<circle id="XMLID_3_" class="st0" cx="48" cy="48" r="32.5"/>
	<path id="XMLID_4_" class="st1" d="M49.6,55.7H48h-1.6c-0.5,0-1-0.2-1.3-0.6l-3-2.4v2.7c0,0,0,4.4,5.9,4.4s5.9-4.4,5.9-4.4v-2.7
		l-3,2.4C50.6,55.5,50.1,55.7,49.6,55.7z"/>
	<path id="XMLID_5_" class="st2" d="M45.1,55.1l-3-2.4v2.7c0,0,0,4.4,5.9,4.4v-4.1h-1.6C45.9,55.7,45.4,55.5,45.1,55.1z"/>
	<path id="XMLID_6_" class="st2" d="M58,43.4c0-0.7-0.6-1.3-1.2-1.3s-0.6,0.7-0.6,0.7v-0.7c0-5.3-0.6-8.9-8.3-8.9s-8.3,3.5-8.3,8.9
		v4.7l2.4,5.9l3,2.4c0.3,0.4,0.8,0.6,1.3,0.6H48h1.6c0.5,0,1-0.2,1.3-0.6l3-2.4l1.9-4.7C57.5,47.9,58,45.3,58,43.4z"/>
	<path id="XMLID_7_" class="st3" d="M39.7,42.1v0.7c0,0,0-0.7-0.6-0.7S38,42.7,38,43.4c0,1.9,0.6,4.5,2.2,4.6l1.9,4.7l3,2.4
		c0.3,0.4,0.8,0.6,1.3,0.6H48V33.2C40.3,33.2,39.7,36.8,39.7,42.1z"/>
	<path id="XMLID_8_" class="st4" d="M45,49.2H51c0,0,0,1.8-3,1.8S45,49.2,45,49.2z"/>
	<polygon id="XMLID_9_" class="st5" points="55.1,55.7 53.9,55.1 48,59.8 42.1,55.1 40.9,55.7 48,66.9 	"/>
	<path id="XMLID_10_" class="st6" d="M29.1,66.9l2.4-6.5c0.4-0.8,1-1.4,1.8-1.8l7.7-3L48,66.9H29.1z"/>
	<path id="XMLID_11_" class="st6" d="M66.9,66.9l-2.4-6.5c-0.4-0.8-1-1.4-1.8-1.8l-7.7-3L48,66.9H66.9z"/>
	<path id="XMLID_12_" class="st7" d="M46.2,43.3c0-0.7-0.5-1.2-1.2-1.2h0l0,0c0,0.7-0.5,1.2-1.2,1.2c0,0.6,0.5,1.1,1.2,1.1
		C45.7,44.5,46.2,43.9,46.2,43.3z"/>
	<path id="XMLID_13_" class="st7" d="M52.1,43.3c0-0.7-0.5-1.2-1.2-1.2h0l0,0c0,0.7-0.5,1.2-1.2,1.2c0,0.6,0.5,1.1,1.2,1.1
		C51.6,44.5,52.1,43.9,52.1,43.3z"/>
	<path id="XMLID_14_" class="st8" d="M39.1,39.7c0,1.3,0.6,7,0.6,7.7c0,0,0,0,0.6,1.2c0,0,0,0,0.6,0c0-0.8-0.6-7.7,1.8-9.5
		L39.1,39.7z"/>
	<path id="XMLID_15_" class="st8" d="M56.9,39.7c0,1.3-0.6,7-0.6,7.7c0,0,0,0-0.6,1.2c0,0,0,0-0.6,0c0-0.8,0.6-7.7-1.8-9.5
		L56.9,39.7z"/>
	<path id="XMLID_16_" class="st8" d="M43.3,49.2H48C48,46.5,44.5,46.9,43.3,49.2z"/>
	<path id="XMLID_17_" class="st8" d="M48,49.2h4.7C51.5,46.9,48,46.5,48,49.2z"/>
	<polygon id="XMLID_18_" class="st9" points="36.9,57.3 39.4,66.9 42.4,66.9 39.6,56.2 	"/>
	<polygon id="XMLID_19_" class="st9" points="59.2,57.3 56.7,66.9 53.7,66.9 56.5,56.2 	"/>
	<path id="XMLID_20_" class="st5" d="M34.9,58.1l-1.7,0.6c-0.8,0.3-1.4,1-1.8,1.8l-2.4,6.5h7L34.9,58.1z"/>
	<path id="XMLID_21_" class="st5" d="M61,58.1l1.7,0.6c0.8,0.3,1.4,1,1.8,1.8l2.4,6.5h-7L61,58.1z"/>
	<path id="XMLID_22_" class="st9" d="M39.1,39.7c0,0-0.6-8.9,8.9-8.9c0,4.7,0,8.9,0,8.9H39.1z"/>
	<path id="XMLID_23_" class="st10" d="M56.9,39.7c0,0,0.6-8.9-8.9-8.9c0,4.7,0,8.9,0,8.9H56.9z"/>
	<path id="XMLID_24_" class="st11" d="M49.8,33.8v-3.5c0-0.7-0.5-1.2-1.2-1.2h-1.2c-0.7,0-1.2,0.5-1.2,1.2v3.5c0,1-1.1,4.6-4.1,4.7
		c2.9,0,3.8,0,4.1,0h0.1h3.3h0.1c0.3,0,1.3,0,4.1,0C50.9,38.4,49.7,34.9,49.8,33.8z"/>
	<path id="XMLID_25_" class="st10" d="M58.6,39.9c0,0.3-0.2,0.5-0.4,0.6c-1.1,0.3-4.5,1.1-10.2,1.1s-9-0.8-10.2-1.1
		c-0.3-0.1-0.4-0.3-0.4-0.6v-0.1c0-0.7,0.5-1.2,1.2-1.2h18.9c0.7,0,1.2,0.5,1.2,1.2V39.9z"/>
	<path id="XMLID_26_" class="st9" d="M38.5,38.5c-0.7,0-1.2,0.5-1.2,1.2v0.1c0,0.3,0.2,0.5,0.4,0.6c1.1,0.3,4.5,1.1,10.2,1.1v-3
		H38.5z"/>
</g>
</svg>
